PathFileType	4	(X/Y/Z)	D:\TRACE\spotREDO_2-26-24\spot_justArm_Motion_3_1-v60.trc
DataRate	CameraRate	NumFrames	NumMarkers	Units	OrigDataRate	OrigDataStartFrame	OrigNumFrames
100.00	100.00	      27	9	mm	100.00	3501	      7000
Frame#	Time	front left toe			Front right toe			aft left toe			aft right toe			Arm			FL body			FR body			AL Body			AR Body			
		X1	Y1	Z1	X2	Y2	Z2	X3	Y3	Z3	X4	Y4	Z4	X5	Y5	Z5	X6	Y6	Z6	X7	Y7	Z7	X8	Y8	Z8	X9	Y9	Z9	

3501	35.000	-187.58295	16.42698	-173.52977	235.06537	15.90761	-172.05786	-167.12643	30.99867	457.80197	246.83789	33.23509	420.10938	-18.65761	699.61780	-777.49377	-46.52874	547.79126	-230.20773	109.26759	551.73383	-236.51665	-20.73339	568.38745	652.38281	127.68208	568.09644	648.90601	
3502	35.010	-187.59784	16.41722	-173.50928	234.93494	15.94586	-172.12393	-166.99126	31.02807	457.90430	246.97977	33.16225	420.09235	-19.91917	699.90271	-777.76483	-46.87982	547.70374	-230.01936	108.88776	551.66992	-236.61090	-20.20133	568.59906	652.39655	128.46289	568.31958	648.92877	
3503	35.020	-187.67441	16.57720	-173.30713	234.84781	15.99125	-172.20139	-166.82336	31.07887	457.96960	247.46152	33.11534	420.02609	-21.40962	700.10156	-778.26794	-47.22016	547.63000	-229.94568	108.30263	551.87207	-237.09070	-19.01433	568.81342	652.54712	129.49321	568.42993	648.95050	
3504	35.030	-187.82774	16.40909	-172.65181	234.71747	16.04561	-172.28273	-166.63458	31.15872	458.06720	247.63380	33.00244	419.91022	-21.93714	700.25568	-778.42377	-48.33828	547.67346	-230.42517	107.78165	551.52472	-237.27742	-18.06666	569.11560	652.70654	130.17885	568.54425	648.85968	
3505	35.040	-187.97055	16.07623	-172.54050	234.52510	16.05577	-172.43115	-166.55418	31.21633	458.12299	247.68254	32.90432	419.82858	-22.18963	700.26489	-778.77826	-48.77916	547.20868	-229.76460	107.02014	550.97485	-237.44299	-17.35428	569.36462	652.61096	131.33586	569.06293	648.85681	
3506	35.050	-188.17233	15.91689	-172.35550	234.41556	16.14912	-172.41707	-166.47978	31.20098	458.18427	247.71994	32.84223	419.82285	-21.87654	700.28497	-778.82068	-49.75360	546.75134	-229.58678	106.50473	550.60852	-237.52373	-16.50550	569.56940	652.68439	131.83205	569.08911	648.14844	
3507	35.060	-188.34607	15.84381	-172.27931	234.16841	16.41550	-172.47002	-166.44250	31.18099	458.22757	247.77145	32.78143	419.80280	-20.17530	700.26404	-777.96930	-50.33340	546.53741	-229.64339	105.74598	550.26593	-237.69115	-15.97481	569.75482	652.75348	132.15060	569.33075	647.96716	
3508	35.070	-188.37645	15.86055	-172.24794	234.15106	16.48737	-172.45418	-166.35960	31.09427	458.19745	247.76518	32.67858	419.77258	-21.11551	700.05457	-779.43616	-51.33970	546.68719	-230.24127	104.99546	550.09497	-237.82698	-15.54534	569.86292	652.68292	133.01660	569.34387	647.83240	
3509	35.080	-188.31557	15.93728	-172.24361	234.15105	16.55497	-172.43713	-166.35762	31.01657	458.18774	247.87097	32.56206	419.82416	-20.13063	699.81976	-779.72083	-51.28184	546.22198	-229.58264	104.50841	550.08807	-238.21674	-15.42251	570.00464	652.63855	133.24332	569.42889	647.75299	
3510	35.090	-188.22250	15.97496	-172.22711	234.27422	16.59076	-172.44713	-166.34010	30.93418	458.19034	248.08696	32.52409	419.87109	-19.04767	699.61761	-779.98407	-51.74248	545.92194	-229.66946	104.17330	549.84473	-238.34442	-15.49274	570.15649	652.53864	133.26051	569.56879	647.62286	
3511	35.100	-188.19362	16.01895	-172.20689	234.20775	16.58379	-172.36787	-166.35739	30.79648	458.23883	248.02669	32.41823	419.96426	-17.23250	699.13348	-780.01147	-51.91928	545.77319	-229.72919	104.14404	549.61963	-238.29694	-15.64107	570.31409	652.49792	133.02521	569.72919	647.49921	
3512	35.110	-188.11703	16.18622	-172.13434	234.31055	16.48702	-172.24985	-166.35278	30.34160	458.28259	247.85982	32.16866	419.99979	-15.94512	698.82166	-780.17596	-51.87373	545.71973	-229.79543	104.21700	549.36530	-238.08611	-16.09140	570.49591	652.46393	132.32890	569.99805	647.45563	
3513	35.120	-188.04851	16.27782	-172.15988	234.30864	16.65887	-172.11320	-166.47459	30.02295	458.24710	247.76431	32.02391	420.05173	-13.34943	698.68335	-779.02087	-51.66596	545.63849	-229.86739	104.43636	549.27673	-238.02870	-16.36147	570.61237	652.48474	131.74524	570.19092	647.48962	
3514	35.130	-188.06697	16.43648	-172.21466	234.46838	16.54448	-172.05551	-166.65417	29.70420	458.11490	247.48260	31.79710	420.02982	-13.27910	698.28125	-780.24603	-51.37057	545.52313	-229.98100	104.67840	549.21490	-238.01884	-16.71835	570.62939	652.24054	131.22783	570.43073	647.57159	
3515	35.140	-187.98756	16.61514	-172.26642	234.72108	16.78200	-171.77002	-166.76250	29.42557	458.13293	247.30789	31.65029	420.02115	-12.21844	697.91608	-780.19794	-50.92754	545.44019	-230.17242	105.15507	549.13342	-237.95630	-17.46122	570.84351	652.15826	130.46484	570.50024	647.56311	
3516	35.150	-187.87207	16.73938	-172.26627	234.82877	16.76292	-171.65999	-166.88078	29.24011	458.15192	247.05577	31.45951	420.10480	-11.37977	697.58997	-780.39581	-50.44246	545.30396	-230.32866	105.53522	549.00696	-237.90144	-18.39542	571.17621	652.11823	129.58073	570.82367	647.75574	
3517	35.160	-187.89211	16.86367	-172.33769	235.11516	17.03664	-171.33525	-166.98273	29.11106	458.17618	246.76352	31.23671	420.14063	-10.76616	697.42474	-780.58960	-49.97006	545.24152	-230.42711	106.04890	548.83246	-237.88164	-19.39908	571.49164	651.96124	129.16585	570.85419	647.84344	
3518	35.170	-187.84615	17.00324	-172.33110	235.05800	17.04792	-171.22754	-167.05806	28.94282	458.23254	246.69333	31.06273	420.21643	-10.33630	697.27710	-780.61584	-49.47084	545.06592	-230.58214	106.43623	548.66907	-237.86127	-19.94556	571.56488	651.94434	128.39124	570.98895	647.84229	
3519	35.180	-187.84262	17.19758	-172.29836	235.30687	17.23454	-170.91655	-167.09909	28.67012	458.27548	246.74887	30.98960	420.37384	-10.24255	697.07849	-780.75787	-48.91022	544.85730	-230.73013	106.70622	548.56140	-237.81590	-20.32320	571.66809	651.89758	127.71029	571.19244	647.83472	
3520	35.190	-187.80930	17.39323	-172.24481	235.06142	17.10398	-170.90108	-167.15337	28.37018	458.31116	246.68251	30.93553	420.59003	-8.65807	697.02673	-779.10596	-48.49730	544.63416	-230.93399	106.97147	548.40875	-237.86145	-20.40865	571.75269	651.50531	127.29297	571.37323	647.81311	
3521	35.200	-187.86024	17.55521	-172.21056	234.97456	17.20407	-170.71883	-167.29361	28.12244	458.26178	246.67792	30.88551	420.73465	-10.77050	696.80103	-780.57007	-48.29803	544.48895	-230.98906	107.36360	548.17218	-237.89642	-20.66123	572.03754	651.40228	127.12158	571.46271	647.79962	
3522	35.210	-188.00070	17.67049	-172.17668	234.74646	17.21313	-170.67104	-167.50328	27.82750	458.20374	246.67604	30.68242	420.75851	-11.49971	696.53778	-780.40906	-47.99183	544.27185	-231.04207	107.54173	547.97467	-237.89766	-20.82095	572.21704	651.30841	126.85787	571.59174	647.75726	
3523	35.220	-188.20169	17.74924	-172.07570	234.48674	17.37446	-170.61227	-167.69461	27.45498	458.32138	246.51303	30.34219	420.78375	-12.19952	696.45972	-780.26672	-47.95217	544.20239	-231.15608	107.65299	547.75873	-237.87045	-20.85132	572.29510	651.29913	126.86123	571.62756	647.75098	
3524	35.230	-188.28906	17.85588	-171.95802	234.37286	17.37181	-170.59494	-167.78539	27.26753	458.39316	246.19426	29.94926	420.86026	-13.18288	696.32153	-780.35291	-47.94858	544.11102	-231.17555	107.85768	547.39703	-237.76160	-20.74174	572.35992	651.29706	127.05527	571.61469	647.72424	
3525	35.240	-188.37097	17.94033	-171.87779	234.31093	17.66063	-170.32568	-167.83563	27.09011	458.47867	246.02538	29.51263	420.91504	-14.29061	696.30286	-780.48065	-48.03195	544.02765	-231.23103	107.80094	547.29724	-237.83475	-20.99098	572.70868	651.46375	127.29476	571.63300	647.76312	
3526	35.250	-188.44908	18.05522	-171.81448	234.34979	17.86515	-170.33376	-167.74989	26.86541	458.46332	246.06001	29.29617	420.98227	-13.78985	696.08978	-778.96735	-48.08878	543.90234	-231.25867	107.80997	547.14026	-237.83817	-20.70027	572.76556	651.35107	127.70038	571.71191	647.76404	
3527	35.260	-188.57631	18.11749	-171.62833	234.18047	17.90781	-170.27005	-167.86772	26.65934	458.46744	246.02463	28.98332	421.15396	-14.16912	696.03668	-778.77063	-48.24772	543.78082	-231.15302	107.58311	547.19141	-238.05344	-20.39263	572.85663	651.35791	128.04466	571.74268	647.82245	
